<?xml version="1.0" encoding="UTF-8" standalone="no"?>
<svg
   xmlns:dc="http://purl.org/dc/elements/1.1/"
   xmlns:cc="http://creativecommons.org/ns#"
   xmlns:rdf="http://www.w3.org/1999/02/22-rdf-syntax-ns#"
   xmlns:svg="http://www.w3.org/2000/svg"
   xmlns="http://www.w3.org/2000/svg"
   viewBox="0 0 493.33334 82.666664"
   height="82.666664"
   width="493.33334"
   xml:space="preserve"
   id="svg2"
   version="1.1"><metadata
     id="metadata8"><rdf:RDF><cc:Work
         rdf:about=""><dc:format>image/svg+xml</dc:format><dc:type
           rdf:resource="http://purl.org/dc/dcmitype/StillImage" /></cc:Work></rdf:RDF></metadata><defs
     id="defs6" /><g
     transform="matrix(1.3333333,0,0,-1.3333333,0,82.666667)"
     id="g10"><g
       transform="scale(0.1)"
       id="g12"><path
         id="path14"
         style="fill:#0900bd;fill-opacity:1;fill-rule:nonzero;stroke:none"
         d="m 235.41,322.5 c 0,15.539 -10.969,23.77 -22.859,23.77 -33.36,0 -22.852,-37.02 -79.992,-37.02 -34.7387,0 -58.5082,23.309 -58.5082,54.391 0,7.32 0.918,11.89 10.9687,11.89 10.5196,0 117.9415,-0.461 130.7305,-0.461 17.828,0 26.52,5.481 26.52,32.91 0,62.622 -40.692,97.821 -111.989,97.821 -75.8826,0 -118.4021,-49.821 -118.4021,-119.762 0,-78.168 45.2617,-127.527 117.9411,-127.527 77.25,0 105.59,41.136 105.59,63.988 z M 85.9414,407.98 c -8.2305,0 -10.0625,2.739 -10.0625,9.598 0,16 16,40.684 56.2231,40.684 38.859,0 54.859,-22.852 54.859,-39.774 0,-7.308 -2.75,-10.508 -11.43,-10.508 H 85.9414" /><path
         id="path16"
         style="fill:#0900bd;fill-opacity:1;fill-rule:nonzero;stroke:none"
         d="m 436.988,213.711 c 0,-20.57 10.524,-24.68 33.371,-24.68 21.032,0 32.461,5.028 32.461,25.59 0,121.598 -1.371,251.41 -1.371,266.957 0,15.082 -6.398,21.481 -25.597,21.481 -23.313,0 -28.34,-5.028 -32,-21.481 -1.832,-8.226 -3.204,-11.887 -5.942,-11.887 -6.859,0 -12.34,36.11 -73.601,36.11 -61.25,0 -101.469,-51.192 -101.469,-125.25 0,-77.699 43.879,-121.59 101.019,-121.59 56.68,0 61.711,30.168 69.02,30.168 3.199,0 4.109,-2.277 4.109,-12.801 z m -54.847,96.449 c -32,0 -53.942,19.66 -53.942,66.281 0,47.079 22.403,73.137 54.403,73.137 31.078,0 54.847,-22.859 54.847,-71.308 0,-46.168 -21.48,-68.11 -55.308,-68.11" /><path
         id="path18"
         style="fill:#0900bd;fill-opacity:1;fill-rule:nonzero;stroke:none"
         d="m 758.801,288.219 c 0,15.543 1.371,163.64 1.371,191.07 0,16.91 -10.524,21.031 -33.832,21.031 -24.219,0 -32.449,-5.949 -32.449,-20.121 0,-14.621 0.91,-34.277 0.91,-90.961 0,-50.277 -16,-75.418 -48.449,-75.418 -26.512,0 -41.602,20.11 -41.602,60.34 0,23.309 0.922,97.36 0.922,105.59 0,17.82 -9.602,21.941 -32.922,21.941 -26.051,0 -32.449,-7.769 -32.449,-22.863 0,-80.906 0.461,-47.078 0.461,-120.219 0,-67.187 26.047,-100.558 79.527,-100.558 65.371,0 67.66,47.078 75.43,47.078 4.109,0 4.109,-8.68 6.402,-18.738 3.199,-14.172 9.141,-22.403 29.25,-22.403 19.199,0 27.43,9.141 27.43,24.231" /><path
         id="path20"
         style="fill:#0900bd;fill-opacity:1;fill-rule:nonzero;stroke:none"
         d="m 949.871,400.211 c 0,-47.539 -157.699,0 -157.699,-84.563 0,-34.289 29.25,-58.058 71.758,-58.058 69.019,0 81.82,43.43 89.59,43.43 3.199,0 3.199,-2.739 6.859,-20.11 2.293,-10.98 7.769,-18.289 23.312,-18.289 23.769,0 28.339,7.309 28.339,21.027 0,10.512 0.46,120.672 0.46,120.672 0,72.68 -37.939,101.942 -106.502,101.942 -91.429,0 -111.539,-51.653 -111.539,-85.942 0,-19.648 6.403,-29.711 31.082,-29.711 21.489,0 29.258,5.493 31.09,15.09 2.277,10.512 0.91,48.449 48.449,48.449 31.078,0 44.801,-16.91 44.801,-42.968 z M 948.5,355.41 c 0,-20.57 -21.031,-53.93 -63.539,-53.93 -17.371,0 -28.801,9.141 -28.801,21.481 0,18.277 18.281,18.738 44.34,24.23 28.34,5.938 37.941,15.539 43.879,15.539 2.742,0 4.121,-2.75 4.121,-7.32" /><path
         id="path22"
         style="fill:#0900bd;fill-opacity:1;fill-rule:nonzero;stroke:none"
         d="m 1052.26,316.102 c 0,-34.743 18.28,-58.051 56.68,-58.051 27.88,0 41.14,10.058 41.14,29.25 0,13.719 -5.94,21.027 -17.83,21.027 -5.03,0 -7.31,-0.906 -10.51,-0.906 -5.94,0 -7.77,3.199 -7.77,11.879 0,22.398 1.83,224.437 1.83,251.41 0,20.109 -9.15,25.598 -31.09,25.598 -23.77,0 -32.45,-8.688 -32.45,-24.68 V 316.102" /><path
         id="path24"
         style="fill:#939399;fill-opacity:1;fill-rule:nonzero;stroke:none"
         d="m 1244.7,295.988 c 0,21.942 -8.23,34.282 -39.77,34.282 -21.94,0 -36.57,-10.051 -36.57,-34.282 0,-21.937 13.72,-35.648 37.94,-35.648 23.32,0 38.4,10.969 38.4,35.648" /><path
         id="path26"
         style="fill:#939399;fill-opacity:1;fill-rule:nonzero;stroke:none"
         d="m 1353.95,570.711 c 0,16 -3.66,25.598 -32.46,25.598 -26.05,0 -34.28,-8.231 -34.28,-25.598 0,-156.789 0.46,-247.289 0.46,-283.41 0,-15.082 5.94,-23.313 26.05,-23.313 15.55,0 24.69,3.66 27.43,17.832 3.66,18.739 3.2,21.942 7.31,21.942 8.69,0 8.23,-42.973 80,-42.973 60.79,0 98.28,51.66 98.28,125.25 0,80.449 -36.57,122.051 -94.63,122.051 -57.59,0 -66.73,-32.91 -74.5,-32.91 -3.66,0 -4.57,1.82 -4.57,10.05 0,7.77 0.91,15.09 0.91,38.399 z m 50.74,-261.012 c -32,0 -53.94,26.973 -53.94,71.77 0,52.57 24.23,69.48 56.68,69.48 32.91,0 53.48,-16.91 53.48,-66.277 0,-48.453 -22.4,-74.973 -56.22,-74.973" /><path
         id="path28"
         style="fill:#939399;fill-opacity:1;fill-rule:nonzero;stroke:none"
         d="m 1619.99,372.328 c 0,46.16 20.11,69.024 58.51,69.024 23.31,0 26.51,15.078 26.51,32 0,20.109 -8.23,26.968 -26.97,26.968 -47.08,0 -55.31,-40.23 -63.08,-40.23 -3.2,0 -4.57,2.289 -6.86,17.832 -2.74,17.367 -7.31,22.398 -26.51,22.398 -19.2,0 -25.14,-5.031 -25.14,-20.121 0,-15.539 -1.83,-71.758 -1.83,-192.898 0,-16.91 8.68,-24.223 32.91,-24.223 26.06,0 32.46,7.774 32.46,24.223 v 85.027" /><path
         id="path30"
         style="fill:#939399;fill-opacity:1;fill-rule:nonzero;stroke:none"
         d="m 1946.36,288.219 c 0,15.543 1.37,163.64 1.37,191.07 0,16.91 -10.51,21.031 -33.83,21.031 -24.22,0 -32.45,-5.949 -32.45,-20.121 0,-14.621 0.91,-34.277 0.91,-90.961 0,-50.277 -15.99,-75.418 -48.45,-75.418 -26.51,0 -41.6,20.11 -41.6,60.34 0,23.309 0.92,97.36 0.92,105.59 0,17.82 -9.6,21.941 -32.91,21.941 -26.06,0 -32.46,-7.769 -32.46,-22.863 0,-80.906 0.46,-47.078 0.46,-120.219 0,-67.187 26.05,-100.558 79.54,-100.558 65.36,0 67.65,47.078 75.42,47.078 4.11,0 4.11,-8.68 6.4,-18.738 3.2,-14.172 9.14,-22.403 29.25,-22.403 19.2,0 27.43,9.141 27.43,24.231" /><path
         id="path32"
         style="fill:#939399;fill-opacity:1;fill-rule:nonzero;stroke:none"
         d="m 2000.76,344.441 c -16,0 -22.86,-7.769 -22.86,-24.222 0,-22.86 26.97,-62.168 102.39,-62.168 76.34,0 110.16,33.371 110.16,72.679 0,32.45 -13.71,53.942 -89.59,67.192 -51.65,9.148 -59.42,17.367 -59.42,34.738 0,16.461 14.63,24.692 40.68,24.692 21.94,0 36.57,-6.864 47.08,-24.692 3.66,-6.39 10.97,-14.621 23.77,-14.621 18.74,0 29.71,8.231 29.71,23.77 0,32.91 -29.71,63.531 -100.1,63.531 -51.66,0 -101.94,-24.219 -101.94,-77.25 0,-31.988 13.72,-60.789 79.54,-71.762 52.57,-8.687 67.19,-12.34 67.19,-28.34 0,-11.429 -8.68,-22.859 -40.68,-22.859 -61.25,0 -56.68,39.312 -85.93,39.312" /><path
         id="path34"
         style="fill:#939399;fill-opacity:1;fill-rule:nonzero;stroke:none"
         d="m 2237.08,344.441 c -16,0 -22.86,-7.769 -22.86,-24.222 0,-22.86 26.97,-62.168 102.4,-62.168 76.33,0 110.16,33.371 110.16,72.679 0,32.45 -13.71,53.942 -89.59,67.192 -51.66,9.148 -59.43,17.367 -59.43,34.738 0,16.461 14.63,24.692 40.68,24.692 21.95,0 36.57,-6.864 47.09,-24.692 3.65,-6.39 10.97,-14.621 23.77,-14.621 18.74,0 29.71,8.231 29.71,23.77 0,32.91 -29.71,63.531 -100.11,63.531 -51.65,0 -101.93,-24.219 -101.93,-77.25 0,-31.988 13.71,-60.789 79.53,-71.762 52.57,-8.687 67.2,-12.34 67.2,-28.34 0,-11.429 -8.69,-22.859 -40.68,-22.859 -61.26,0 -56.69,39.312 -85.94,39.312" /><path
         id="path36"
         style="fill:#939399;fill-opacity:1;fill-rule:nonzero;stroke:none"
         d="m 2674.07,322.5 c 0,15.539 -10.97,23.77 -22.85,23.77 -33.37,0 -22.86,-37.02 -80,-37.02 -34.74,0 -58.51,23.309 -58.51,54.391 0,7.32 0.92,11.89 10.98,11.89 10.51,0 117.93,-0.461 130.73,-0.461 17.82,0 26.51,5.481 26.51,32.91 0,62.622 -40.68,97.821 -111.99,97.821 -75.88,0 -118.39,-49.821 -118.39,-119.762 0,-78.168 45.25,-127.527 117.93,-127.527 77.25,0 105.59,41.136 105.59,63.988 z m -149.47,85.48 c -8.23,0 -10.06,2.739 -10.06,9.598 0,16 16,40.684 56.23,40.684 38.85,0 54.85,-22.852 54.85,-39.774 0,-7.308 -2.74,-10.508 -11.43,-10.508 h -89.59" /><path
         id="path38"
         style="fill:#939399;fill-opacity:1;fill-rule:nonzero;stroke:none"
         d="m 2712.93,316.102 c 0,-34.743 18.28,-58.051 56.68,-58.051 27.88,0 41.14,10.058 41.14,29.25 0,13.719 -5.94,21.027 -17.83,21.027 -5.03,0 -7.31,-0.906 -10.51,-0.906 -5.95,0 -7.77,3.199 -7.77,11.879 0,22.398 1.82,224.437 1.82,251.41 0,20.109 -9.14,25.598 -31.08,25.598 -23.77,0 -32.45,-8.688 -32.45,-24.68 V 316.102" /><path
         id="path40"
         style="fill:#939399;fill-opacity:1;fill-rule:nonzero;stroke:none"
         d="m 2843.2,344.441 c -16,0 -22.85,-7.769 -22.85,-24.222 0,-22.86 26.97,-62.168 102.39,-62.168 76.34,0 110.16,33.371 110.16,72.679 0,32.45 -13.71,53.942 -89.59,67.192 -51.65,9.148 -59.43,17.367 -59.43,34.738 0,16.461 14.63,24.692 40.69,24.692 21.94,0 36.57,-6.864 47.08,-24.692 3.66,-6.39 10.97,-14.621 23.77,-14.621 18.74,0 29.71,8.231 29.71,23.77 0,32.91 -29.71,63.531 -100.11,63.531 -51.65,0 -101.93,-24.219 -101.93,-77.25 0,-31.988 13.71,-60.789 79.54,-71.762 52.56,-8.687 67.19,-12.34 67.19,-28.34 0,-11.429 -8.68,-22.859 -40.68,-22.859 -61.25,0 -56.68,39.312 -85.94,39.312" /><path
         id="path42"
         style="fill:#949499;fill-opacity:1;fill-rule:nonzero;stroke:none"
         d="m 3182.47,439.648 c -46.01,0 -91.73,-34.66 -91.73,-92.687 0,-56.223 52.05,-91.191 97.32,-91.191 49.81,0 73.84,15.601 115.8,7.121 32.82,-6.629 50.55,-22.672 59.36,-31.09 4.21,-4.031 9.54,-4.512 13.2,-2.082 3.64,2.41 6.12,6.961 3.64,17.832 -5.72,25.32 -19.22,53.668 -34.89,77.859 -30.77,47.512 -93.19,114.238 -162.7,114.238" /><path
         id="path44"
         style="fill:#949499;fill-opacity:1;fill-rule:nonzero;stroke:none"
         d="m 3608.28,439.648 c 46.01,0 91.72,-34.66 91.72,-92.687 0,-56.223 -52.06,-91.191 -97.33,-91.191 -49.79,0 -73.82,15.601 -115.78,7.121 -32.82,-6.629 -50.55,-22.672 -59.35,-31.09 -4.22,-4.031 -9.57,-4.512 -13.21,-2.082 -3.65,2.41 -6.11,6.961 -3.65,17.832 5.74,25.32 19.23,53.668 34.88,77.859 30.79,47.512 93.21,114.238 162.72,114.238" /><path
         id="path46"
         style="fill:#949499;fill-opacity:1;fill-rule:evenodd;stroke:none"
         d="m 3454.27,596.309 c -25.7,0 -46.97,-10.789 -58.9,-26.571 -11.92,15.782 -33.19,26.571 -58.9,26.571 -46.51,0 -89.2,-37.039 -89.2,-90.778 0,-23.57 9.46,-41.453 18.04,-53.953 9.77,-14.25 22.63,-26.598 42.84,-44.148 29.32,-25.442 53.44,-50.289 76.46,-98.899 1.84,-3.871 5.73,-8.25 10.76,-8.25 5.04,0 8.93,4.379 10.76,8.25 23.03,48.61 47.16,73.457 76.47,98.899 20.2,17.55 33.06,29.898 42.84,44.148 8.58,12.5 18.04,30.383 18.04,53.953 0,53.739 -42.69,90.778 -89.21,90.778 z m -2.17,-26.559 c -30.81,0 -50.02,-23.23 -56.73,-39.809 -6.71,16.579 -25.91,39.809 -56.72,39.809 -35.49,0 -64.19,-29.301 -64.19,-64.809 0,-13.402 4.56,-25.722 12.77,-36.953 32.32,-44.168 76.19,-58.316 108.14,-127.519 31.95,69.203 75.83,83.351 108.14,127.519 8.21,11.231 12.79,23.551 12.79,36.953 0,35.508 -28.7,64.809 -64.2,64.809" /><path
         id="path48"
         style="fill:#939399;fill-opacity:1;fill-rule:nonzero;stroke:none"
         d="m 32.5781,39.2891 c -3.7383,0 -6.289,-2.7188 -6.289,-6.6289 0,-9.3516 12.0703,-26.51957 40.8007,-26.51957 30.6016,0 41.1402,12.91797 41.1402,26.85937 0,21.0781 -20.5698,19.2109 -20.5698,23.2891 0,4.25 17.8518,5.1015 17.8518,31.4492 0,14.6207 -6.8011,18.8707 -6.8011,20.5707 0,0.679 0.3399,1.363 3.0591,1.363 h 7.308 c 3.402,0 5.274,1.359 5.274,6.289 0,4.93 -2.211,6.461 -5.614,6.461 H 85.7891 c -7.8203,0 -9.8594,2.039 -19.7188,2.039 -20.9101,0 -38.5898,-12.41 -38.5898,-36.8907 0,-50.4922 64.2578,-32.1289 64.2578,-54.7422 0,-7.9883 -5.7774,-13.5976 -23.457,-13.5976 -25.3321,0 -24.9922,20.0586 -35.7032,20.0586 z m 10.3711,48.2812 c 0,15.1287 9.0117,23.9687 23.2891,23.9687 14.793,0 23.6328,-9.18 23.6328,-23.9687 0,-16.4922 -8.8398,-25.8398 -23.6328,-25.8398 -14.2774,0 -23.2891,9.6914 -23.2891,25.8398" /><path
         id="path50"
         style="fill:#939399;fill-opacity:1;fill-rule:nonzero;stroke:none"
         d="m 165.352,32.4883 c 25.16,0 35.699,15.3008 35.699,22.1015 0,4.0821 -2.039,6.1211 -5.781,6.1211 -8.329,0 -7.481,-15.4726 -29.411,-15.4726 -16.488,0 -26.519,12.0703 -26.519,28.2226 0,2.7188 0.172,4.25 3.738,4.25 3.57,0 47.774,-0.1718 52.192,-0.1718 6.121,0 8.839,3.0625 8.839,10.539 0,19.0429 -12.75,36.3829 -37.91,36.3829 -24.48,0 -37.91,-14.789 -40.969,-33.6602 -0.679,-4.082 -1.019,-7.9922 -1.019,-11.9024 0,-27.707 13.09,-46.4101 41.141,-46.4101 z m 0,78.7107 c 17.168,0 24.136,-10.879 24.136,-19.5506 0,-2.3789 -0.847,-4.7578 -3.566,-4.7578 h -40.633 c -3.738,0 -4.93,0.5078 -4.93,4.25 0,7.4805 7.821,20.0584 24.993,20.0584" /><path
         id="path52"
         style="fill:#939399;fill-opacity:1;fill-rule:nonzero;stroke:none"
         d="m 229.781,158.121 c -5.609,0 -7.312,-2.551 -7.312,-7.141 0,-7.14 0.34,-93.6714 0.34,-97.0698 0,-12.0704 3.402,-19.3789 17.339,-19.3789 8.161,0 13.09,3.0585 13.09,6.9687 0,3.5703 -1.699,5.9492 -4.418,5.9492 -2.89,0 -3.742,-1.1875 -6.289,-1.1875 -4.761,0 -5.101,3.3985 -5.101,9.1797 V 151.32 c 0,4.418 -2.039,6.801 -7.649,6.801" /><path
         id="path54"
         style="fill:#939399;fill-opacity:1;fill-rule:nonzero;stroke:none"
         d="m 273.301,158.629 c -7.313,0 -10.879,-4.59 -10.879,-11.051 0,-6.117 3.738,-10.879 10.879,-10.879 6.969,0 10.539,4.762 10.539,11.223 0,6.117 -3.57,10.707 -10.539,10.707 z m -0.34,-36.207 c -5.609,0 -7.141,-1.192 -7.141,-5.442 0,-9.351 -0.34,-73.4409 -0.34,-77.6909 0,-3.7383 1.192,-4.9297 7.309,-4.9297 6.633,0 7.481,1.3594 7.481,4.4219 v 77.8597 c 0,4.929 -2.211,5.781 -7.309,5.781" /><path
         id="path56"
         style="fill:#939399;fill-opacity:1;fill-rule:nonzero;stroke:none"
         d="m 311.891,122.422 c -5.442,0 -7.653,-0.852 -7.653,-4.762 0,-33.3202 0.34,-84.9998 0.34,-92.4803 0,-4.5899 -1.359,-7.3086 -5.609,-7.3086 -3.399,0 -5.098,2.0391 -8.328,2.0391 -4.59,0 -6.121,-3.2305 -6.121,-6.1211 0,-4.25004 4.25,-7.64847 13.941,-7.64847 12.41,0 20.398,7.14067 20.398,20.05857 0,4.9297 -0.168,84.6598 -0.168,90.7808 0,3.739 -1.191,5.442 -6.8,5.442 z m 0,36.207 c -7.313,0 -10.879,-4.59 -10.879,-11.051 0,-6.117 3.738,-10.879 10.879,-10.879 6.968,0 10.539,4.762 10.539,11.223 0,6.117 -3.571,10.707 -10.539,10.707" /><path
         id="path58"
         style="fill:#939399;fill-opacity:1;fill-rule:nonzero;stroke:none"
         d="m 368.328,75.6719 c 0.852,0 1.703,-0.3438 3.402,-2.8906 2.719,-4.0821 9.348,-13.0899 22.95,-31.793 3.23,-4.5899 5.609,-6.9688 12.75,-6.9688 6.121,0 7.14,1.3594 7.14,3.2305 0,1.3594 -0.679,2.7188 -3.742,6.9688 -4.078,5.7812 -8.156,10.8828 -15.976,21.5898 -9.524,13.0898 -14.961,18.8711 -14.961,20.4023 0,2.3789 2.039,3.0586 10.371,11.5586 6.797,5.9495 11.898,9.3515 19.547,10.5395 4.25,0.679 5.613,3.062 5.613,7.48 0,5.27 -2.891,6.633 -8.16,6.633 -9.692,0 -18.532,-6.801 -28.223,-17.684 C 361.02,84.3398 358.98,82.6406 357.621,82.6406 c -0.851,0 -1.191,0.3399 -1.191,1.5313 0,31.6171 0.679,65.4491 0.679,68.6801 0,4.25 -2.211,5.269 -7.308,5.269 -5.442,0 -7.481,-1.191 -7.481,-4.59 0,-20.402 -0.172,-27.203 -0.172,-38.59 0,-11.39 -0.507,-58.9918 -0.507,-61.2027 0,-2.207 -0.34,-8.3281 -0.34,-14.1094 0,-3.0586 0.679,-5.2695 7.648,-5.2695 6.461,0 7.653,2.3789 7.653,4.9297 0,5.1015 -0.172,19.8906 -0.172,21.5898 0,2.8906 1.191,4.5899 4.761,8.5 4.418,4.9297 5.61,6.293 7.137,6.293" /><path
         id="path60"
         style="fill:#939399;fill-opacity:1;fill-rule:nonzero;stroke:none"
         d="m 467.27,32.4883 c 25.16,0 35.699,15.3008 35.699,22.1015 0,4.0821 -2.039,6.1211 -5.778,6.1211 -8.332,0 -7.48,-15.4726 -29.41,-15.4726 -16.492,0 -26.519,12.0703 -26.519,28.2226 0,2.7188 0.168,4.25 3.738,4.25 3.57,0 47.77,-0.1718 52.191,-0.1718 6.118,0 8.84,3.0625 8.84,10.539 0,19.0429 -12.75,36.3829 -37.91,36.3829 -24.48,0 -37.91,-14.789 -40.973,-33.6602 -0.679,-4.082 -1.019,-7.9922 -1.019,-11.9024 0,-27.707 13.09,-46.4101 41.141,-46.4101 z m 0,78.7107 c 17.171,0 24.14,-10.879 24.14,-19.5506 0,-2.3789 -0.851,-4.7578 -3.57,-4.7578 h -40.629 c -3.742,0 -4.93,0.5078 -4.93,4.25 0,7.4805 7.821,20.0584 24.989,20.0584" /><path
         id="path62"
         style="fill:#939399;fill-opacity:1;fill-rule:nonzero;stroke:none"
         d="m 589.84,75.6719 c 0.851,0 1.699,-0.3438 3.398,-2.8906 2.723,-4.0821 9.352,-13.0899 22.953,-31.793 3.231,-4.5899 5.61,-6.9688 12.75,-6.9688 6.118,0 7.137,1.3594 7.137,3.2305 0,1.3594 -0.68,2.7188 -3.738,6.9688 -4.078,5.7812 -8.16,10.8828 -15.981,21.5898 -9.519,13.0898 -14.961,18.8711 -14.961,20.4023 0,2.3789 2.043,3.0586 10.372,11.5586 6.8,5.9495 11.902,9.3515 19.55,10.5395 4.25,0.679 5.61,3.062 5.61,7.48 0,5.27 -2.891,6.633 -8.16,6.633 -9.692,0 -18.532,-6.801 -28.219,-17.684 -18.02,-20.3982 -20.063,-22.0974 -21.422,-22.0974 -0.848,0 -1.188,0.3399 -1.188,1.5313 0,31.6171 0.68,65.4491 0.68,68.6801 0,4.25 -2.211,5.269 -7.312,5.269 -5.438,0 -7.481,-1.191 -7.481,-4.59 0,-20.402 -0.168,-27.203 -0.168,-38.59 0,-11.39 -0.512,-58.9918 -0.512,-61.2027 0,-2.207 -0.339,-8.3281 -0.339,-14.1094 0,-3.0586 0.679,-5.2695 7.652,-5.2695 6.461,0 7.648,2.3789 7.648,4.9297 0,5.1015 -0.168,19.8906 -0.168,21.5898 0,2.8906 1.188,4.5899 4.758,8.5 4.422,4.9297 5.61,6.293 7.141,6.293" /><path
         id="path64"
         style="fill:#939399;fill-opacity:1;fill-rule:nonzero;stroke:none"
         d="m 718.699,34.0195 c 4.25,0 5.61,0.8516 5.61,4.0821 0,6.9687 -0.34,39.6093 -0.34,49.4687 0,23.2887 -9.52,37.0587 -35.188,37.0587 -28.902,0 -38.761,-17.848 -38.761,-29.9181 0,-5.9492 1.531,-8.5 6.968,-8.5 4.59,0 7.141,2.3789 7.481,5.2696 1.871,12.9175 6.633,20.2305 23.121,20.2305 13.769,0 21.25,-6.633 21.25,-20.0626 v -5.7773 c 0,-5.9492 -3.059,-7.8203 -23.461,-9.3516 -27.539,-2.039 -36.039,-9.1797 -36.039,-23.1211 0,-10.707 9.691,-21.25 27.879,-21.25 25.16,0 30.09,15.6407 32.98,15.6407 1.192,0 1.531,-1.5274 2.723,-6.9688 1.019,-5.2695 1.867,-6.8008 5.777,-6.8008 z m -38.078,10.5391 c -11.223,0 -15.812,4.7617 -15.812,11.0508 0,6.1211 5.441,10.539 21.082,12.2422 15.64,1.6992 16.148,2.8867 20.058,2.8867 2.039,0 3.063,-1.1875 3.063,-3.7383 0,-12.4102 -12.242,-22.4414 -28.391,-22.4414" /><path
         id="path66"
         style="fill:#939399;fill-opacity:1;fill-rule:nonzero;stroke:none"
         d="m 788.57,124.461 c -21.25,0 -24.992,-15.301 -27.711,-15.301 -1.359,0 -1.359,1.02 -2.211,7.988 -0.507,4.59 -1.699,5.274 -6.628,5.274 -4.418,0 -6.122,-0.852 -6.122,-5.781 0,-5.782 -0.339,-32.9808 -0.339,-77.8597 0,-3.0625 1.019,-4.4219 6.632,-4.4219 7.481,0 7.821,1.3594 7.821,4.5898 v 43.3516 c 0,20.2302 13.258,28.3902 26.347,28.3902 11.051,0 17.172,-6.461 17.172,-21.4215 0,-8.8398 0.168,-46.2382 0.168,-49.4687 0,-4.25 0.68,-5.2695 6.289,-5.2695 6.801,0 8.5,1.0195 8.5,3.9101 0,30.0899 -0.168,25.668 -0.168,52.5274 0,27.0312 -14.789,33.4922 -29.75,33.4922" /><path
         id="path68"
         style="fill:#939399;fill-opacity:1;fill-rule:nonzero;stroke:none"
         d="m 874.422,44.5586 c -27.371,0 -23.973,19.5508 -34.512,19.5508 -3.57,0 -5.609,-2.5508 -5.609,-5.4375 0,-11.5625 13.769,-26.1836 39.437,-26.1836 26.012,0 36.383,13.0898 36.383,26.0117 0,13.6016 -8.332,19.7188 -34,24.1406 C 856.738,86.0391 853,90.1211 853,97.9414 c 0,7.3086 6.461,13.4296 18.871,13.4296 11.899,0 18.359,-3.57 22.609,-9.859 2.04,-3.5706 4.418,-5.6136 7.989,-5.6136 3.91,0 6.801,1.5313 6.801,6.1216 0,9.519 -10.2,22.269 -35.192,22.269 -23.289,0 -36.887,-10.711 -36.887,-27.539 0,-10.8789 7.309,-21.7617 29.75,-25.1602 24.137,-3.7382 27.879,-8.6679 27.879,-15.1289 0,-6.8007 -6.289,-11.9023 -20.398,-11.9023" /><path
         id="path70"
         style="fill:#939399;fill-opacity:1;fill-rule:nonzero;stroke:none"
         d="m 963.328,32.4883 c 25.16,0 35.703,15.3008 35.703,22.1015 0,4.0821 -2.043,6.1211 -5.781,6.1211 -8.328,0 -7.48,-15.4726 -29.41,-15.4726 -16.488,0 -26.52,12.0703 -26.52,28.2226 0,2.7188 0.168,4.25 3.739,4.25 3.57,0 47.769,-0.1718 52.191,-0.1718 6.121,0 8.84,3.0625 8.84,10.539 0,19.0429 -12.75,36.3829 -37.91,36.3829 -24.481,0 -37.91,-14.789 -40.969,-33.6602 -0.68,-4.082 -1.02,-7.9922 -1.02,-11.9024 0,-27.707 13.09,-46.4101 41.137,-46.4101 z m 0,78.7107 c 17.172,0 24.141,-10.879 24.141,-19.5506 0,-2.3789 -0.848,-4.7578 -3.571,-4.7578 H 943.27 c -3.739,0 -4.93,0.5078 -4.93,4.25 0,7.4805 7.82,20.0584 24.988,20.0584" /><path
         id="path72"
         style="fill:#939399;fill-opacity:1;fill-rule:nonzero;stroke:none"
         d="m 1062.61,124.461 c -21.25,0 -24.99,-15.301 -27.71,-15.301 -1.36,0 -1.36,1.02 -2.21,7.988 -0.51,4.59 -1.7,5.274 -6.63,5.274 -4.42,0 -6.12,-0.852 -6.12,-5.781 0,-5.782 -0.34,-32.9808 -0.34,-77.8597 0,-3.0625 1.02,-4.4219 6.63,-4.4219 7.48,0 7.82,1.3594 7.82,4.5898 v 43.3516 c 0,20.2302 13.26,28.3902 26.35,28.3902 11.05,0 17.17,-6.461 17.17,-21.4215 0,-8.8398 0.17,-46.2382 0.17,-49.4687 0,-4.25 0.68,-5.2695 6.29,-5.2695 6.8,0 8.5,1.0195 8.5,3.9101 0,30.0899 -0.17,25.668 -0.17,52.5274 0,27.0312 -14.79,33.4922 -29.75,33.4922" /><path
         id="path74"
         style="fill:#939399;fill-opacity:1;fill-rule:nonzero;stroke:none"
         d="m 1195.38,11.0703 c 0,-3.39842 2.21,-4.92967 6.8,-4.92967 5.44,0 7.14,1.87109 7.14,4.75777 0,21.5899 -0.51,55.5899 -0.51,78.543 0,21.4176 0.17,75.3086 0.17,76.8396 0,2.719 -1.19,4.758 -7.14,4.758 -5.27,0 -6.97,-1.019 -6.97,-5.609 0,-26.18 0.51,-129.5394 0.51,-154.3597" /><path
         id="path76"
         style="fill:#939399;fill-opacity:1;fill-rule:nonzero;stroke:none"
         d="m 1348.04,32.4883 c 25.16,0 35.7,15.3008 35.7,22.1015 0,4.0821 -2.04,6.1211 -5.78,6.1211 -8.33,0 -7.48,-15.4726 -29.41,-15.4726 -16.49,0 -26.52,12.0703 -26.52,28.2226 0,2.7188 0.17,4.25 3.74,4.25 3.57,0 47.77,-0.1718 52.19,-0.1718 6.12,0 8.84,3.0625 8.84,10.539 0,19.0429 -12.75,36.3829 -37.91,36.3829 -24.48,0 -37.91,-14.789 -40.97,-33.6602 -0.68,-4.082 -1.02,-7.9922 -1.02,-11.9024 0,-27.707 13.09,-46.4101 41.14,-46.4101 z m 0,78.7107 c 17.17,0 24.14,-10.879 24.14,-19.5506 0,-2.3789 -0.85,-4.7578 -3.57,-4.7578 h -40.63 c -3.74,0 -4.93,0.5078 -4.93,4.25 0,7.4805 7.82,20.0584 24.99,20.0584 z m 14.96,43.692 c 0,3.91 -3.57,5.949 -6.97,5.949 -4.42,0 -5.61,-2.551 -9.69,-11.731 -3.23,-6.968 -3.74,-8.5 -3.74,-11.39 0,-2.719 2.55,-4.758 5.61,-4.758 3.23,0 4.93,1.699 10.03,10.027 4.25,6.973 4.76,9.012 4.76,11.903" /><path
         id="path78"
         style="fill:#939399;fill-opacity:1;fill-rule:nonzero;stroke:none"
         d="m 1404.65,39.2891 c -3.74,0 -6.29,-2.7188 -6.29,-6.6289 0,-9.3516 12.07,-26.51957 40.8,-26.51957 30.6,0 41.14,12.91797 41.14,26.85937 0,21.0781 -20.57,19.2109 -20.57,23.2891 0,4.25 17.85,5.1015 17.85,31.4492 0,14.6207 -6.8,18.8707 -6.8,20.5707 0,0.679 0.34,1.363 3.06,1.363 h 7.31 c 3.4,0 5.27,1.359 5.27,6.289 0,4.93 -2.21,6.461 -5.61,6.461 h -22.95 c -7.82,0 -9.86,2.039 -19.72,2.039 -20.91,0 -38.59,-12.41 -38.59,-36.8907 0,-50.4922 64.26,-32.1289 64.26,-54.7422 0,-7.9883 -5.78,-13.5976 -23.46,-13.5976 -25.33,0 -24.99,20.0586 -35.7,20.0586 z m 10.37,48.2812 c 0,15.1287 9.01,23.9687 23.29,23.9687 14.79,0 23.63,-9.18 23.63,-23.9687 0,-16.4922 -8.84,-25.8398 -23.63,-25.8398 -14.28,0 -23.29,9.6914 -23.29,25.8398" /><path
         id="path80"
         style="fill:#939399;fill-opacity:1;fill-rule:nonzero;stroke:none"
         d="m 1567.34,34.0195 c 4.25,0 5.61,0.8516 5.61,4.0821 0,6.9687 -0.34,39.6093 -0.34,49.4687 0,23.2887 -9.52,37.0587 -35.19,37.0587 -28.9,0 -38.76,-17.848 -38.76,-29.9181 0,-5.9492 1.53,-8.5 6.97,-8.5 4.59,0 7.14,2.3789 7.48,5.2696 1.87,12.9175 6.63,20.2305 23.12,20.2305 13.77,0 21.25,-6.633 21.25,-20.0626 v -5.7773 c 0,-5.9492 -3.06,-7.8203 -23.46,-9.3516 -27.54,-2.039 -36.04,-9.1797 -36.04,-23.1211 0,-10.707 9.69,-21.25 27.88,-21.25 25.16,0 30.09,15.6407 32.98,15.6407 1.19,0 1.53,-1.5274 2.72,-6.9688 1.02,-5.2695 1.87,-6.8008 5.78,-6.8008 z m -38.08,10.5391 c -11.22,0 -15.81,4.7617 -15.81,11.0508 0,6.1211 5.44,10.539 21.08,12.2422 15.64,1.6992 16.15,2.8867 20.06,2.8867 2.04,0 3.06,-1.1875 3.06,-3.7383 0,-12.4102 -12.24,-22.4414 -28.39,-22.4414" /><path
         id="path82"
         style="fill:#939399;fill-opacity:1;fill-rule:nonzero;stroke:none"
         d="m 1602.36,158.121 c -5.61,0 -7.31,-2.551 -7.31,-7.141 0,-7.14 0.34,-93.6714 0.34,-97.0698 0,-12.0704 3.4,-19.3789 17.34,-19.3789 8.16,0 13.09,3.0585 13.09,6.9687 0,3.5703 -1.7,5.9492 -4.42,5.9492 -2.89,0 -3.74,-1.1875 -6.29,-1.1875 -4.76,0 -5.1,3.3985 -5.1,9.1797 V 151.32 c 0,4.418 -2.04,6.801 -7.65,6.801" /><path
         id="path84"
         style="fill:#939399;fill-opacity:1;fill-rule:nonzero;stroke:none"
         d="m 1645.88,158.629 c -7.31,0 -10.88,-4.59 -10.88,-11.051 0,-6.117 3.74,-10.879 10.88,-10.879 6.97,0 10.54,4.762 10.54,11.223 0,6.117 -3.57,10.707 -10.54,10.707 z m -0.34,-36.207 c -5.61,0 -7.14,-1.192 -7.14,-5.442 0,-9.351 -0.34,-73.4409 -0.34,-77.6909 0,-3.7383 1.19,-4.9297 7.31,-4.9297 6.63,0 7.48,1.3594 7.48,4.4219 v 77.8597 c 0,4.929 -2.21,5.781 -7.31,5.781" /><path
         id="path86"
         style="fill:#939399;fill-opacity:1;fill-rule:nonzero;stroke:none"
         d="m 1685.66,124.121 c 0,-2.551 -2.04,-2.551 -11.39,-4.422 -4.08,-0.847 -5.27,-2.039 -5.27,-5.437 0,-3.231 1.87,-4.59 5.1,-4.59 h 8.67 c 1.87,0 2.72,-0.852 2.72,-3.063 0,-14.4488 -0.51,-37.2301 -0.51,-46.5777 0,-16.1524 5.78,-26.1797 23.8,-26.1797 11.39,0 16.49,4.7578 16.49,9.3476 0,3.4024 -1.7,6.6289 -5.44,6.6289 -3.91,0 -6.12,-2.3789 -9.86,-2.3789 -7.14,0 -10.2,3.4024 -10.2,10.1992 v 49.3006 c 0,2.039 0.51,2.723 2.89,2.723 h 18.53 c 2.55,0 5.1,1.359 5.1,6.629 0,4.929 -2.72,6.121 -5.1,6.121 -4.76,0 -17.85,0.168 -19.21,0.168 -2.04,0 -2.55,0 -2.55,3.398 v 19.551 c 0,3.231 -1.19,5.949 -6.63,5.949 -5.78,0 -7.14,-2.718 -7.14,-6.457 v -20.91" /><path
         id="path88"
         style="fill:#939399;fill-opacity:1;fill-rule:nonzero;stroke:none"
         d="m 1778.82,32.4883 c 25.16,0 35.7,15.3008 35.7,22.1015 0,4.0821 -2.04,6.1211 -5.78,6.1211 -8.33,0 -7.48,-15.4726 -29.41,-15.4726 -16.49,0 -26.52,12.0703 -26.52,28.2226 0,2.7188 0.17,4.25 3.74,4.25 3.57,0 47.77,-0.1718 52.19,-0.1718 6.12,0 8.84,3.0625 8.84,10.539 0,19.0429 -12.75,36.3829 -37.91,36.3829 -24.48,0 -37.91,-14.789 -40.97,-33.6602 -0.68,-4.082 -1.02,-7.9922 -1.02,-11.9024 0,-27.707 13.09,-46.4101 41.14,-46.4101 z m 0,78.7107 c 17.17,0 24.14,-10.879 24.14,-19.5506 0,-2.3789 -0.85,-4.7578 -3.57,-4.7578 h -40.63 c -3.74,0 -4.93,0.5078 -4.93,4.25 0,7.4805 7.82,20.0584 24.99,20.0584 z m 14.96,43.692 c 0,3.91 -3.57,5.949 -6.97,5.949 -4.42,0 -5.61,-2.551 -9.69,-11.731 -3.23,-6.968 -3.74,-8.5 -3.74,-11.39 0,-2.719 2.55,-4.758 5.61,-4.758 3.23,0 4.93,1.699 10.03,10.027 4.25,6.973 4.76,9.012 4.76,11.903" /><path
         id="path90"
         style="fill:#939399;fill-opacity:1;fill-rule:nonzero;stroke:none"
         d="m 1937.09,150.98 c 0,-18.871 0.68,-32.98 0.68,-37.058 0,-2.723 -0.17,-3.231 -1.02,-3.231 -2.04,0 -3.57,13.77 -29.41,13.77 -20.4,0 -38.42,-16.152 -38.42,-45.0508 0,-28.8985 14.79,-46.9219 36.04,-46.9219 26.01,0 29.58,15.4726 32.3,15.4726 1.36,0 1.36,-2.039 2.04,-8.5 0.51,-4.9296 1.19,-5.4414 6.46,-5.4414 6.29,0 6.29,1.1914 6.29,4.9297 0,12.9219 -0.51,106.5898 -0.51,112.1988 0,4.422 -1.53,6.973 -7.14,6.973 -5.61,0 -7.31,-2.551 -7.31,-7.141 z m -24.65,-39.269 c 14.45,0 25.16,-12.2422 25.16,-32.4727 0,-21.5899 -10.37,-33.8281 -27.2,-33.8281 -18.19,0 -26.86,14.1093 -26.86,32.4687 0,17.5117 7.65,33.8321 28.9,33.8321" /><path
         id="path92"
         style="fill:#939399;fill-opacity:1;fill-rule:nonzero;stroke:none"
         d="m 2011.04,32.4883 c 25.16,0 35.7,15.3008 35.7,22.1015 0,4.0821 -2.04,6.1211 -5.78,6.1211 -8.33,0 -7.48,-15.4726 -29.41,-15.4726 -16.49,0 -26.52,12.0703 -26.52,28.2226 0,2.7188 0.17,4.25 3.74,4.25 3.57,0 47.77,-0.1718 52.19,-0.1718 6.12,0 8.84,3.0625 8.84,10.539 0,19.0429 -12.75,36.3829 -37.91,36.3829 -24.48,0 -37.91,-14.789 -40.97,-33.6602 -0.68,-4.082 -1.02,-7.9922 -1.02,-11.9024 0,-27.707 13.09,-46.4101 41.14,-46.4101 z m 0,78.7107 c 17.17,0 24.14,-10.879 24.14,-19.5506 0,-2.3789 -0.85,-4.7578 -3.57,-4.7578 h -40.63 c -3.74,0 -4.93,0.5078 -4.93,4.25 0,7.4805 7.82,20.0584 24.99,20.0584" /><path
         id="path94"
         style="fill:#939399;fill-opacity:1;fill-rule:nonzero;stroke:none"
         d="m 2101.14,44.5586 c -27.37,0 -23.97,19.5508 -34.51,19.5508 -3.57,0 -5.61,-2.5508 -5.61,-5.4375 0,-11.5625 13.77,-26.1836 39.44,-26.1836 26.01,0 36.38,13.0898 36.38,26.0117 0,13.6016 -8.33,19.7188 -34,24.1406 -19.38,3.3985 -23.12,7.4805 -23.12,15.3008 0,7.3086 6.46,13.4296 18.87,13.4296 11.9,0 18.36,-3.57 22.61,-9.859 2.04,-3.5706 4.42,-5.6136 7.99,-5.6136 3.91,0 6.8,1.5313 6.8,6.1216 0,9.519 -10.2,22.269 -35.19,22.269 -23.29,0 -36.89,-10.711 -36.89,-27.539 0,-10.8789 7.31,-21.7617 29.75,-25.1602 24.14,-3.7382 27.88,-8.6679 27.88,-15.1289 0,-6.8007 -6.29,-11.9023 -20.4,-11.9023" /><path
         id="path96"
         style="fill:#939399;fill-opacity:1;fill-rule:nonzero;stroke:none"
         d="m 2230.34,45.2383 c -18.02,0 -27.03,14.4531 -27.03,31.9609 0,21.5899 10.2,34.3398 26.69,34.3398 17.34,0 21.59,-15.8085 22.78,-20.3984 0.68,-2.7187 2.21,-5.1015 6.8,-5.1015 5.44,0 7.14,3.0625 7.14,6.9726 0,14.1093 -10.54,31.4493 -36.38,31.4493 -28.56,0 -42.5,-19.551 -42.5,-47.9415 0,-26.3476 14.79,-44.0312 43.01,-44.0312 25.16,0 35.7,15.3008 35.7,22.1015 0,4.0821 -2.04,6.1211 -5.78,6.1211 -8.33,0 -7.14,-15.4726 -30.43,-15.4726" /><path
         id="path98"
         style="fill:#939399;fill-opacity:1;fill-rule:nonzero;stroke:none"
         d="m 2299.19,151.32 c 0,4.418 -1.36,6.801 -6.97,6.801 -5.61,0 -7.31,-2.551 -7.31,-7.141 V 41.6719 c 0,-5.4414 1.19,-7.3125 5.61,-7.3125 3.06,0 2.21,0.1719 4.08,0.1719 2.89,0 4.93,1.0195 4.93,3.2304 0,7.1367 -0.17,28.8985 -0.17,49.2969 0,16.8324 12.58,24.4804 24.99,24.4804 11.9,0 18.7,-8.16 18.7,-21.5898 0,-8.6679 -0.17,-44.3711 -0.17,-49.8086 -0.17,-5.1015 0.34,-6.1211 7.65,-6.1211 5.44,0 6.8,2.211 6.8,5.9493 0,29.9218 0.17,39.9531 0.17,49.6406 0,28.3906 -15.47,34.8516 -31.28,34.8516 -20.23,0 -24.31,-13.43 -26.18,-13.43 -0.68,0 -1.19,0.34 -1.19,2.547 0,18.871 0.34,24.82 0.34,37.742" /><path
         id="path100"
         style="fill:#939399;fill-opacity:1;fill-rule:nonzero;stroke:none"
         d="m 2445.9,34.0195 c 4.25,0 5.61,0.8516 5.61,4.0821 0,6.9687 -0.34,39.6093 -0.34,49.4687 0,23.2887 -9.52,37.0587 -35.19,37.0587 -28.9,0 -38.76,-17.848 -38.76,-29.9181 0,-5.9492 1.53,-8.5 6.97,-8.5 4.59,0 7.14,2.3789 7.48,5.2696 1.87,12.9175 6.63,20.2305 23.12,20.2305 13.77,0 21.25,-6.633 21.25,-20.0626 v -5.7773 c 0,-5.9492 -3.06,-7.8203 -23.46,-9.3516 -27.54,-2.039 -36.04,-9.1797 -36.04,-23.1211 0,-10.707 9.69,-21.25 27.88,-21.25 25.16,0 30.09,15.6407 32.98,15.6407 1.19,0 1.53,-1.5274 2.72,-6.9688 1.02,-5.2695 1.87,-6.8008 5.78,-6.8008 z m -38.08,10.5391 c -11.22,0 -15.81,4.7617 -15.81,11.0508 0,6.1211 5.44,10.539 21.08,12.2422 15.64,1.6992 16.15,2.8867 20.06,2.8867 2.04,0 3.06,-1.1875 3.06,-3.7383 0,-12.4102 -12.24,-22.4414 -28.39,-22.4414" /><path
         id="path102"
         style="fill:#939399;fill-opacity:1;fill-rule:nonzero;stroke:none"
         d="m 2515.77,124.461 c -21.25,0 -24.99,-15.301 -27.71,-15.301 -1.36,0 -1.36,1.02 -2.21,7.988 -0.51,4.59 -1.7,5.274 -6.63,5.274 -4.42,0 -6.12,-0.852 -6.12,-5.781 0,-5.782 -0.34,-32.9808 -0.34,-77.8597 0,-3.0625 1.02,-4.4219 6.63,-4.4219 7.48,0 7.82,1.3594 7.82,4.5898 v 43.3516 c 0,20.2302 13.26,28.3902 26.35,28.3902 11.05,0 17.17,-6.461 17.17,-21.4215 0,-8.8398 0.17,-46.2382 0.17,-49.4687 0,-4.25 0.68,-5.2695 6.29,-5.2695 6.8,0 8.5,1.0195 8.5,3.9101 0,30.0899 -0.17,25.668 -0.17,52.5274 0,27.0312 -14.79,33.4922 -29.75,33.4922" /><path
         id="path104"
         style="fill:#939399;fill-opacity:1;fill-rule:nonzero;stroke:none"
         d="m 2604.85,45.2383 c -18.02,0 -27.03,14.4531 -27.03,31.9609 0,21.5899 10.2,34.3398 26.69,34.3398 17.34,0 21.59,-15.8085 22.78,-20.3984 0.68,-2.7187 2.21,-5.1015 6.8,-5.1015 5.44,0 7.14,3.0625 7.14,6.9726 0,14.1093 -10.54,31.4493 -36.38,31.4493 -28.56,0 -42.5,-19.551 -42.5,-47.9415 0,-26.3476 14.79,-44.0312 43.01,-44.0312 25.16,0 35.7,15.3008 35.7,22.1015 0,4.0821 -2.04,6.1211 -5.78,6.1211 -8.33,0 -7.14,-15.4726 -30.43,-15.4726" /><path
         id="path106"
         style="fill:#939399;fill-opacity:1;fill-rule:nonzero;stroke:none"
         d="m 2695.97,32.4883 c 25.16,0 35.7,15.3008 35.7,22.1015 0,4.0821 -2.04,6.1211 -5.78,6.1211 -8.33,0 -7.48,-15.4726 -29.41,-15.4726 -16.49,0 -26.52,12.0703 -26.52,28.2226 0,2.7188 0.17,4.25 3.74,4.25 3.57,0 47.77,-0.1718 52.19,-0.1718 6.12,0 8.84,3.0625 8.84,10.539 0,19.0429 -12.75,36.3829 -37.91,36.3829 -24.48,0 -37.91,-14.789 -40.97,-33.6602 -0.68,-4.082 -1.02,-7.9922 -1.02,-11.9024 0,-27.707 13.09,-46.4101 41.14,-46.4101 z m 0,78.7107 c 17.17,0 24.14,-10.879 24.14,-19.5506 0,-2.3789 -0.85,-4.7578 -3.57,-4.7578 h -40.63 c -3.74,0 -4.93,0.5078 -4.93,4.25 0,7.4805 7.82,20.0584 24.99,20.0584" /><path
         id="path108"
         style="fill:#939399;fill-opacity:1;fill-rule:nonzero;stroke:none"
         d="m 2786.07,44.5586 c -27.37,0 -23.97,19.5508 -34.51,19.5508 -3.57,0 -5.61,-2.5508 -5.61,-5.4375 0,-11.5625 13.77,-26.1836 39.44,-26.1836 26.01,0 36.38,13.0898 36.38,26.0117 0,13.6016 -8.33,19.7188 -34,24.1406 -19.38,3.3985 -23.12,7.4805 -23.12,15.3008 0,7.3086 6.46,13.4296 18.87,13.4296 11.9,0 18.36,-3.57 22.61,-9.859 2.04,-3.5706 4.42,-5.6136 7.99,-5.6136 3.91,0 6.8,1.5313 6.8,6.1216 0,9.519 -10.2,22.269 -35.19,22.269 -23.29,0 -36.89,-10.711 -36.89,-27.539 0,-10.8789 7.31,-21.7617 29.75,-25.1602 24.14,-3.7382 27.88,-8.6679 27.88,-15.1289 0,-6.8007 -6.29,-11.9023 -20.4,-11.9023" /></g></g></svg>